<svg xmlns="http://www.w3.org/2000/svg" fill="none" height="26" viewBox="0 0 24 26" width="24"><g clip-rule="evenodd" fill="#bfc3c8" fill-rule="evenodd"><path d="m8 0c.55229 0 1 .447715 1 1v1.08526c.91022-.05938 1.9077-.08526 3-.08526s2.0898.02588 3 .08526v-1.08526c0-.552285.4477-1 1-1s1 .447715 1 1v1.29284c4.5655.6884 6.3272 2.7418 6.8321 7.70716.0327.321.0601.6542.0826 1 .021.3219.0378.6547.0508.9987.0237.6289.0345 1.2953.0345 2.0013 0 9.882-2.118 12-12 12s-12-2.118-12-12c0-.706.0108119-1.3724.0344942-2.0013.012957-.344.0297665-.6768.0507662-.9987.0225586-.3458.0499526-.679.0825996-1 .504962-4.96536 2.26669-7.01876 6.83214-7.70716v-1.29284c0-.552285.44772-1 1-1zm-1 4.31862c-1.34394.22827-2.25162.57838-2.89181 1.04772-.94459.6925-1.6256 1.90866-1.92898 4.63366h19.64159c-.3034-2.725-.9844-3.94116-1.929-4.63366-.6402-.46934-1.5479-.81945-2.8918-1.04772v.68138c0 .55228-.4477 1-1 1s-1-.44772-1-1v-.90882c-.8682-.06068-1.8613-.09118-3-.09118s-2.13181.0305-3 .09118v.90882c0 .55228-.44771 1-1 1-.55228 0-1-.44772-1-1zm15 9.68138c0-.7154-.0114-1.3807-.0359-2h-19.92817c-.02449.6193-.03593 1.2846-.03593 2 0 2.4249.13254 4.2369.43771 5.6101.30012 1.3504.73997 2.1507 1.27075 2.6814.53078.5308 1.33103.9707 2.68147 1.2708 1.37314.3052 3.18522.4377 5.61007.4377 2.4249 0 4.2369-.1325 5.6101-.4377 1.3504-.3001 2.1507-.74 2.6814-1.2708.5308-.5307.9707-1.331 1.2708-2.6814.3052-1.3732.4377-3.1852.4377-5.6101z"/><path d="m5 16c0-.5523.44772-1 1-1h3c.55228 0 1 .4477 1 1s-.44772 1-1 1h-3c-.55228 0-1-.4477-1-1zm10-1c-.5523 0-1 .4477-1 1s.4477 1 1 1h3c.5523 0 1-.4477 1-1s-.4477-1-1-1zm0 4c-.5523 0-1 .4477-1 1s.4477 1 1 1h3c.5523 0 1-.4477 1-1s-.4477-1-1-1zm-9 0c-.55228 0-1 .4477-1 1s.44772 1 1 1h3c.55228 0 1-.4477 1-1s-.44772-1-1-1z"/></g></svg>