<svg xmlns="http://www.w3.org/2000/svg" fill="none" height="24" viewBox="0 0 24 24" width="24"><g stroke="#18daa3" stroke-linecap="round" stroke-linejoin="round" stroke-width="2"><path d="m1 12c0 2.4477.13246 4.3463.46153 5.827.32654 1.4693.83325 2.4651 1.53983 3.1716.70658.7066 1.70229 1.2133 3.17162 1.5399 1.48068.329 3.37934.4615 5.82702.4615 2.4477 0 4.3463-.1325 5.827-.4615 1.4693-.3266 2.4651-.8333 3.1716-1.5399.7066-.7065 1.2133-1.7023 1.5399-3.1716.329-1.4807.4615-3.3793.4615-5.827 0-2.44768-.1325-4.34634-.4615-5.82702-.3266-1.46933-.8333-2.46504-1.5399-3.17162-.7065-.70658-1.7023-1.21329-3.1716-1.53983-1.4807-.32907-3.3793-.46153-5.827-.46153-2.44768 0-4.34634.13246-5.82702.46153-1.46933.32654-2.46504.83325-3.17162 1.53983s-1.21329 1.70229-1.53983 3.17162c-.32907 1.48068-.46153 3.37934-.46153 5.82702z"/><path d="m12 6v5c0 1 0 1 1 1h5"/></g></svg>