<svg xmlns="http://www.w3.org/2000/svg" version="1.1" xmlns:xlink="http://www.w3.org/1999/xlink" xmlns:svgjs="http://svgjs.com/svgjs" width="512" height="512" x="0" y="0" viewBox="0 0 511 512" style="enable-background:new 0 0 512 512" xml:space="preserve" class=""><g><path d="M492.477 0H20.5C9.453 0 .5 8.953.5 20c0 55.695 23.875 108.867 65.504 145.871l87.59 77.852a71.265 71.265 0 0 1 23.898 53.222v195.032c0 15.937 17.813 25.492 31.09 16.636l117.996-78.66a20.005 20.005 0 0 0 8.906-16.64V296.945a71.265 71.265 0 0 1 23.899-53.222l87.586-77.852C488.598 128.867 512.473 75.695 512.473 20c0-11.047-8.953-20-19.996-20zm-72.082 135.973-87.586 77.855c-23.72 21.086-37.325 51.379-37.325 83.113V402.61l-77.996 51.996v-157.66a111.301 111.301 0 0 0-37.324-83.117l-87.586-77.851c-28.07-24.957-45.988-59.153-50.785-95.98H471.18c-4.797 36.827-22.711 71.023-50.785 95.976zm0 0" fill="#bfc3c8" data-original="#000000" class=""></path></g></svg>