<svg xmlns="http://www.w3.org/2000/svg" fill="none" height="24" viewBox="0 0 24 24" width="24"><path d="m1.71205 19.2165c-.980067-4.4787-.732332-8.466-.51327-9.99747.02278-.0382.0631-.09807.12832-.18141.14791-.18901.37374-.43548.67748-.73484.60441-.59568 1.44487-1.3302 2.40432-2.12379 1.91445-1.58351 4.23554-3.34721 5.9277-4.60711 1.0202-.759562 2.4038-.76277 3.4267-.00798 1.7062 1.25901 4.0478 3.02474 5.9671 4.60999.9622.79472 1.7996 1.52882 2.3941 2.12266.2991.29873.5161.54165.6535.72477.0478.06371.0792.11123.0987.14366.1085 1.62982.3729 5.61412-.5048 10.07212-.2244 1.1403-.6416 1.8504-1.244 2.3343-.6274.5041-1.574.8587-3.0392 1.0417-.7299.0912-1.4528.1662-2.1705.2251-2.6462.2171-5.2264.2157-7.83427-.004-.69111-.0582-1.38448-.1318-2.08185-.2207-1.46172-.1865-2.39545-.5443-3.01765-1.0491-.6014-.4879-1.02194-1.2034-1.27238-2.3479zm-.53189-9.96309c-.00009.00003.00067-.00178.00254-.00551-.00152.00362-.00245.00548-.00254.00551zm21.72144-.04211c-.0002-.00004-.0013-.00233-.003-.00673.0022.00457.0031.00678.003.00673z" stroke="#bfc3c8" stroke-linecap="round" stroke-linejoin="round" stroke-width="2"/></svg>