<svg xmlns="http://www.w3.org/2000/svg" version="1.1" xmlns:xlink="http://www.w3.org/1999/xlink" xmlns:svgjs="http://svgjs.com/svgjs" width="512" height="512" x="0" y="0" viewBox="0 0 64 64" style="enable-background:new 0 0 512 512" xml:space="preserve" class=""><g><path fill="#bfc3c8" fill-rule="evenodd" d="M48.634 13.315c-9.753-9.753-25.566-9.753-35.32 0-9.752 9.753-9.752 25.566 0 35.32 9.754 9.752 25.567 9.752 35.32 0s9.753-25.567 0-35.32zm-38.148-2.829c11.316-11.315 29.661-11.315 40.977 0C62.303 21.326 62.758 38.618 52.829 50l8.585 8.586a2 2 0 1 1-2.828 2.828L50 52.83c-11.382 9.929-28.674 9.473-39.514-1.366-11.315-11.316-11.315-29.661 0-40.977z" clip-rule="evenodd" data-original="#000000" class=""></path></g></svg>