<svg xmlns="http://www.w3.org/2000/svg" fill="none" height="24" viewBox="0 0 24 24" width="24"><g stroke="#bfc3c8" stroke-width="2"><path d="m15.415 3.83878c-.7055-3.7850402-6.1245-3.7850399-6.83001 0-.16613.89128-1.08691 1.42213-1.93896 1.12126-3.63346-1.283-6.333852 3.41768-3.41559 5.91836.68759.5892.68759 1.654 0 2.2432-2.918262 2.5007-.21787 7.2014 3.41559 5.9184.85205-.3009 1.77283.2299 1.93896 1.1212.70551 3.7851 6.12451 3.7851 6.83001 0 .1661-.8913 1.0869-1.4221 1.939-1.1212 3.6334 1.283 6.3338-3.4177 3.4156-5.9184-.6876-.5892-.6876-1.654 0-2.2432 2.9182-2.50068.2178-7.20136-3.4156-5.91836-.8521.30087-1.7729-.22998-1.939-1.12126z" stroke-linejoin="round"/><circle cx="4" cy="4" r="3" transform="matrix(-1 0 0 1 16 8)"/></g></svg>